<?xml version="1.0" ?><svg enable-background="new 0 0 512 512" id="Layer_2" version="1.1" viewBox="0 0 512 512" xml:space="preserve" xmlns="http://www.w3.org/2000/svg" xmlns:xlink="http://www.w3.org/1999/xlink"><g><path d="   M483.487,71.019c0.695-2.42,1.329-4.84,1.903-7.257" fill="none" stroke="#474747" stroke-linecap="round" stroke-linejoin="round" stroke-miterlimit="10" stroke-width="15"/><path d="   M313.968,200.454c75.254-5.758,126.085-44.612,152.927-90.714" fill="none" stroke="#474747" stroke-linecap="round" stroke-linejoin="round" stroke-miterlimit="10" stroke-width="15"/><path d="   M17.39,275.762c0,0,50.061-69.32,136.227-83.957" fill="none" stroke="#474747" stroke-linecap="round" stroke-linejoin="round" stroke-miterlimit="10" stroke-width="15"/><path d="   M477.772,348.602c6.343-4.173,12.556-8.778,18.618-13.84" fill="none" stroke="#474747" stroke-linecap="round" stroke-linejoin="round" stroke-miterlimit="10" stroke-width="15"/><path d="   M296.792,376.89c3.394,0.636,6.796,1.225,10.203,1.765" fill="none" stroke="#474747" stroke-linecap="round" stroke-linejoin="round" stroke-miterlimit="10" stroke-width="15"/><path d="   M17.39,347.762c0,0,59-61,152-15c29.022,14.355,61.882,27.713,96.295,36.997" fill="none" stroke="#474747" stroke-linecap="round" stroke-linejoin="round" stroke-miterlimit="10" stroke-width="15"/><path d="   M29.39,378.762c0,0,44-41,111-13c55.743,23.296,87,56,162,69" fill="none" stroke="#474747" stroke-linecap="round" stroke-linejoin="round" stroke-miterlimit="10" stroke-width="15"/><g><circle cx="232.542" cy="194.738" fill="none" r="45" stroke="#474747" stroke-linecap="round" stroke-linejoin="round" stroke-miterlimit="10" stroke-width="15"/><line fill="none" stroke="#474747" stroke-linecap="round" stroke-linejoin="round" stroke-miterlimit="10" stroke-width="15" x1="218.586" x2="210.395" y1="150.906" y2="125.179"/><line fill="none" stroke="#474747" stroke-linecap="round" stroke-linejoin="round" stroke-miterlimit="10" stroke-width="15" x1="254.386" x2="246.194" y1="263.345" y2="237.617"/><line fill="none" stroke="#474747" stroke-linecap="round" stroke-linejoin="round" stroke-miterlimit="10" stroke-width="15" x1="189.035" x2="163.307" y1="208.066" y2="216.258"/><line fill="none" stroke="#474747" stroke-linecap="round" stroke-linejoin="round" stroke-miterlimit="10" stroke-width="15" x1="301.473" x2="275.746" y1="172.266" y2="180.458"/><line fill="none" stroke="#474747" stroke-linecap="round" stroke-linejoin="round" stroke-miterlimit="10" stroke-width="15" x1="253.286" x2="265.686" y1="153.844" y2="129.86"/><line fill="none" stroke="#474747" stroke-linecap="round" stroke-linejoin="round" stroke-miterlimit="10" stroke-width="15" x1="199.094" x2="211.494" y1="258.664" y2="234.68"/><line fill="none" stroke="#474747" stroke-linecap="round" stroke-linejoin="round" stroke-miterlimit="10" stroke-width="15" x1="191.972" x2="167.988" y1="173.366" y2="160.966"/><line fill="none" stroke="#474747" stroke-linecap="round" stroke-linejoin="round" stroke-miterlimit="10" stroke-width="15" x1="296.792" x2="272.808" y1="227.558" y2="215.158"/><circle cx="212.647" cy="180.871" fill="#474747" r="6.25"/><circle cx="243.703" cy="176.23" fill="#474747" r="6.25"/><circle cx="232.704" cy="194.424" fill="#474747" r="6.25"/><circle cx="254.018" cy="208.627" fill="#474747" r="6.25"/><circle cx="218.847" cy="213.529" fill="#474747" r="6.25"/></g><g><circle cx="390.292" cy="345.686" fill="none" r="39.188" stroke="#474747" stroke-linecap="round" stroke-linejoin="round" stroke-miterlimit="10" stroke-width="15"/><line fill="none" stroke="#474747" stroke-linecap="round" stroke-linejoin="round" stroke-miterlimit="10" stroke-width="15" x1="399.352" x2="404.669" y1="306.665" y2="283.762"/><line fill="none" stroke="#474747" stroke-linecap="round" stroke-linejoin="round" stroke-miterlimit="10" stroke-width="15" x1="376.111" x2="381.429" y1="406.762" y2="383.859"/><line fill="none" stroke="#474747" stroke-linecap="round" stroke-linejoin="round" stroke-miterlimit="10" stroke-width="15" x1="351.794" x2="328.89" y1="336.301" y2="330.983"/><line fill="none" stroke="#474747" stroke-linecap="round" stroke-linejoin="round" stroke-miterlimit="10" stroke-width="15" x1="451.89" x2="428.987" y1="359.541" y2="354.223"/><line fill="none" stroke="#474747" stroke-linecap="round" stroke-linejoin="round" stroke-miterlimit="10" stroke-width="15" x1="424.019" x2="443.974" y1="324.307" y2="311.872"/><line fill="none" stroke="#474747" stroke-linecap="round" stroke-linejoin="round" stroke-miterlimit="10" stroke-width="15" x1="336.806" x2="356.762" y1="378.652" y2="366.217"/><line fill="none" stroke="#474747" stroke-linecap="round" stroke-linejoin="round" stroke-miterlimit="10" stroke-width="15" x1="369.435" x2="357" y1="311.634" y2="291.678"/><line fill="none" stroke="#474747" stroke-linecap="round" stroke-linejoin="round" stroke-miterlimit="10" stroke-width="15" x1="423.781" x2="411.346" y1="398.846" y2="378.89"/><circle cx="381.571" cy="326.452" fill="#474747" r="5.443"/><circle cx="406.883" cy="336.799" fill="#474747" r="5.443"/><circle cx="390.553" cy="345.523" fill="#474747" r="5.443"/><circle cx="400.186" cy="365.64" fill="#474747" r="5.443"/><circle cx="371.678" cy="353.657" fill="#474747" r="5.443"/></g><circle cx="115.89" cy="259.262" fill="none" r="16.5" stroke="#474747" stroke-linecap="round" stroke-linejoin="round" stroke-miterlimit="10" stroke-width="15"/><circle cx="433.89" cy="227.262" fill="none" r="16.5" stroke="#474747" stroke-linecap="round" stroke-linejoin="round" stroke-miterlimit="10" stroke-width="15"/><circle cx="411.89" cy="96.262" fill="none" r="16.5" stroke="#474747" stroke-linecap="round" stroke-linejoin="round" stroke-miterlimit="10" stroke-width="15"/><circle cx="272.89" cy="318.262" fill="none" r="16.5" stroke="#474747" stroke-linecap="round" stroke-linejoin="round" stroke-miterlimit="10" stroke-width="15"/><circle cx="215.39" cy="298.762" fill="#474747" r="9.5"/><circle cx="347.39" cy="249.762" fill="#474747" r="9.5"/><circle cx="362.39" cy="147.762" fill="#474747" r="9.5"/><circle cx="476.39" cy="289.762" fill="#474747" r="9.5"/><circle cx="480.39" cy="169.762" fill="#474747" r="9.5"/></g></svg>