<?xml version="1.0" ?><svg viewBox="0 0 24 24" xmlns="http://www.w3.org/2000/svg"><title/><g data-name="Layer 2" id="Layer_2"><path d="M12,3A10,10,0,0,0,2,13a9.89,9.89,0,0,0,3.74,7.78L6,21H18l.27-.22A9.89,9.89,0,0,0,22,13,10,10,0,0,0,12,3Zm6.31,5.1L17,9.46,15.54,8,16.9,6.69A7.24,7.24,0,0,1,18.31,8.1ZM12,5a8.25,8.25,0,0,1,1,.06V7H11V5.06A8.25,8.25,0,0,1,12,5ZM8.46,8,7,9.46,5.69,8.1A7.24,7.24,0,0,1,7.1,6.69ZM4,13a8.27,8.27,0,0,1,.06-1H6v2H4.07A6.63,6.63,0,0,1,4,13Zm9.73,6a2,2,0,0,0-3.46,0H8.13a4.25,4.25,0,0,1,.15-.47A4,4,0,0,1,11,16.12V10h2v6.13a4,4,0,0,1,2.66,2.25,3.48,3.48,0,0,1,.21.62ZM18,14V12h1.94A8.27,8.27,0,0,1,20,13a6.63,6.63,0,0,1-.07,1Z"/></g></svg>